Coordinates
version=1
nRows=41
nColumns=15
inDegrees=yes

Units are S.I. units (second, meters, Newtons, ...)
Angles are in degrees.

endheader
time	sacrum_pitch	sacrum_roll	sacrum_yaw	sacrum_x	sacrum_y	sacrum_z	sacroiliac_flx	hip_flx	hip_add	hip_int	knee_flx	ankle_flx	ankle_add	ankle_int
3.75500000	30.00000000	0.00000000	0.00000000	0.07402332	0.06685083	0.00000000	0.00000000	-3.82116423	0.00000000	0.00000000	-96.38521884	10.05841903	0.00000000	0.00000000
3.76000000	30.00000000	0.00000000	0.00000000	0.07390114	0.06676491	0.00000000	0.00000000	-3.89693046	0.00000000	0.00000000	-96.59922900	10.56231324	0.00000000	0.00000000
3.76500000	30.00000000	0.00000000	0.00000000	0.07377510	0.06665638	0.00000000	0.00000000	-3.71825688	0.00000000	0.00000000	-97.04539281	10.49359836	0.00000000	0.00000000
3.77000000	30.00000000	0.00000000	0.00000000	0.07363384	0.06654487	0.00000000	0.00000000	-3.96192408	0.00000000	0.00000000	-97.04063288	10.66712768	0.00000000	0.00000000
3.77500000	30.00000000	0.00000000	0.00000000	0.07350704	0.06641878	0.00000000	0.00000000	-3.71041901	0.00000000	0.00000000	-97.71683667	10.71193898	0.00000000	0.00000000
3.78000000	30.00000000	0.00000000	0.00000000	0.07339872	0.06630469	0.00000000	0.00000000	-3.54994471	0.00000000	0.00000000	-98.23191291	10.88715154	0.00000000	0.00000000
3.78500000	30.00000000	0.00000000	0.00000000	0.07335859	0.06622845	0.00000000	0.00000000	-3.34257974	0.00000000	0.00000000	-98.85895622	10.94907913	0.00000000	0.00000000
3.79000000	30.00000000	0.00000000	0.00000000	0.07330761	0.06613042	0.00000000	0.00000000	-3.35498508	0.00000000	0.00000000	-99.18206252	11.05552353	0.00000000	0.00000000
3.79500000	30.00000000	0.00000000	0.00000000	0.07324507	0.06598875	0.00000000	0.00000000	-3.26970467	0.00000000	0.00000000	-99.59895847	11.84878079	0.00000000	0.00000000
3.80000000	30.00000000	0.00000000	0.00000000	0.07320179	0.06582662	0.00000000	0.00000000	-3.20385025	0.00000000	0.00000000	-100.15492191	11.88138790	0.00000000	0.00000000
3.80500000	30.00000000	0.00000000	0.00000000	0.07320747	0.06570187	0.00000000	0.00000000	-3.24430794	0.00000000	0.00000000	-100.69520881	11.72277152	0.00000000	0.00000000
3.81000000	30.00000000	0.00000000	0.00000000	0.07322552	0.06558071	0.00000000	0.00000000	-3.17635013	0.00000000	0.00000000	-101.32386385	12.11525854	0.00000000	0.00000000
3.81500000	30.00000000	0.00000000	0.00000000	0.07326222	0.06543724	0.00000000	0.00000000	-3.12246470	0.00000000	0.00000000	-101.92442515	12.12138573	0.00000000	0.00000000
3.82000000	30.00000000	0.00000000	0.00000000	0.07338967	0.06536156	0.00000000	0.00000000	-3.37855367	0.00000000	0.00000000	-102.30106656	12.15325103	0.00000000	0.00000000
3.82500000	30.00000000	0.00000000	0.00000000	0.07350717	0.06509600	0.00000000	0.00000000	-3.15252039	0.00000000	0.00000000	-102.82893329	11.95727535	0.00000000	0.00000000
3.83000000	30.00000000	0.00000000	0.00000000	0.07366818	0.06486854	0.00000000	0.00000000	-2.98215721	0.00000000	0.00000000	-103.46254246	12.07319580	0.00000000	0.00000000
3.83500000	30.00000000	0.00000000	0.00000000	0.07383458	0.06463981	0.00000000	0.00000000	-2.96197471	0.00000000	0.00000000	-103.89844606	12.15302427	0.00000000	0.00000000
3.84000000	30.00000000	0.00000000	0.00000000	0.07402174	0.06436607	0.00000000	0.00000000	-2.80084421	0.00000000	0.00000000	-104.38216891	12.07574383	0.00000000	0.00000000
3.84500000	30.00000000	0.00000000	0.00000000	0.07417916	0.06412540	0.00000000	0.00000000	-2.80673588	0.00000000	0.00000000	-104.82847309	12.18833599	0.00000000	0.00000000
3.85000000	30.00000000	0.00000000	0.00000000	0.07436930	0.06390862	0.00000000	0.00000000	-2.72909364	0.00000000	0.00000000	-105.38199940	11.56540687	0.00000000	0.00000000
3.85500000	30.00000000	0.00000000	0.00000000	0.07460664	0.06368582	0.00000000	0.00000000	-2.53101055	0.00000000	0.00000000	-105.80391431	11.60168996	0.00000000	0.00000000
3.86000000	30.00000000	0.00000000	0.00000000	0.07476663	0.06344439	0.00000000	0.00000000	-2.49180012	0.00000000	0.00000000	-106.17604254	11.60582596	0.00000000	0.00000000
3.86500000	30.00000000	0.00000000	0.00000000	0.07497255	0.06328365	0.00000000	0.00000000	-2.56409096	0.00000000	0.00000000	-106.68131256	11.62544457	0.00000000	0.00000000
3.87000000	30.00000000	0.00000000	0.00000000	0.07512737	0.06301769	0.00000000	0.00000000	-2.47182603	0.00000000	0.00000000	-107.23750357	11.39076933	0.00000000	0.00000000
3.87500000	30.00000000	0.00000000	0.00000000	0.07534361	0.06280495	0.00000000	0.00000000	-2.49252549	0.00000000	0.00000000	-107.68467614	11.11930333	0.00000000	0.00000000
3.88000000	30.00000000	0.00000000	0.00000000	0.07559762	0.06256943	0.00000000	0.00000000	-2.38712983	0.00000000	0.00000000	-108.03360812	10.75266334	0.00000000	0.00000000
3.88500000	30.00000000	0.00000000	0.00000000	0.07582587	0.06232800	0.00000000	0.00000000	-2.38302582	0.00000000	0.00000000	-108.46420762	10.67118939	0.00000000	0.00000000
3.89000000	30.00000000	0.00000000	0.00000000	0.07586543	0.06215300	0.00000000	0.00000000	-2.60540046	0.00000000	0.00000000	-108.99245764	10.06045625	0.00000000	0.00000000
3.89500000	30.00000000	0.00000000	0.00000000	0.07583488	0.06206615	0.00000000	0.00000000	-2.87568229	0.00000000	0.00000000	-109.50714452	9.91603714	0.00000000	0.00000000
3.90000000	30.00000000	0.00000000	0.00000000	0.07579385	0.06212702	0.00000000	0.00000000	-3.11200533	0.00000000	0.00000000	-109.88324563	9.42926513	0.00000000	0.00000000
3.90500000	30.00000000	0.00000000	0.00000000	0.07563091	0.06218980	0.00000000	0.00000000	-3.62144352	0.00000000	0.00000000	-110.08127342	8.66103184	0.00000000	0.00000000
3.91000000	30.00000000	0.00000000	0.00000000	0.07547618	0.06232486	0.00000000	0.00000000	-3.84371331	0.00000000	0.00000000	-110.17583759	7.98965131	0.00000000	0.00000000
3.91500000	30.00000000	0.00000000	0.00000000	0.07531577	0.06258909	0.00000000	0.00000000	-4.21304027	0.00000000	0.00000000	-110.29456641	7.35504164	0.00000000	0.00000000
3.92000000	30.00000000	0.00000000	0.00000000	0.07506267	0.06278526	0.00000000	0.00000000	-4.70236329	0.00000000	0.00000000	-110.29329334	6.58100368	0.00000000	0.00000000
3.92500000	30.00000000	0.00000000	0.00000000	0.07483228	0.06303905	0.00000000	0.00000000	-5.11136198	0.00000000	0.00000000	-110.36553809	5.69475592	0.00000000	0.00000000
3.93000000	30.00000000	0.00000000	0.00000000	0.07448559	0.06324703	0.00000000	0.00000000	-5.55204240	0.00000000	0.00000000	-110.50333684	5.01263737	0.00000000	0.00000000
3.93500000	30.00000000	0.00000000	0.00000000	0.07414293	0.06352241	0.00000000	0.00000000	-6.09188264	0.00000000	0.00000000	-110.56903640	3.99550150	0.00000000	0.00000000
3.94000000	30.00000000	0.00000000	0.00000000	0.07378913	0.06370998	0.00000000	0.00000000	-6.45305331	0.00000000	0.00000000	-110.67970666	3.47557743	0.00000000	0.00000000
3.94500000	30.00000000	0.00000000	0.00000000	0.07342654	0.06393914	0.00000000	0.00000000	-6.93786626	0.00000000	0.00000000	-110.69344082	2.86638012	0.00000000	0.00000000
3.95000000	30.00000000	0.00000000	0.00000000	0.07297826	0.06412569	0.00000000	0.00000000	-7.52430105	0.00000000	0.00000000	-110.63668468	2.29955904	0.00000000	0.00000000
3.95500000	30.00000000	0.00000000	0.00000000	0.07253979	0.06438001	0.00000000	0.00000000	-8.00104856	0.00000000	0.00000000	-110.72694087	1.53816693	0.00000000	0.00000000
